<svg
   viewBox="0 0 136 136"
   fill="currentColor"
   xmlns="http://www.w3.org/2000/svg"
>
    <path
       d="m 34.614885,0.7927475 -3.571954,27.4188535 -0.992715,2.89315 -2.277321,1.92385 2.678283,3.75271 0.04545,16.79263 -2.821555,4.43828 2.811505,4.1302 -0.03551,17.13533 -2.717789,3.75803 2.659552,3.1048 0.109019,13.01723 c -5.16091,-3.98283 -7.766731,-12.98456 -8.568391,-19.19326 h -0.342744 c 0.118611,5.1627 1.399682,10.43853 3.686429,15.08046 16.479771,33.454059 70.715212,33.658089 85.716096,-1.37093 1.93988,-4.52991 3.1355,-9.45788 3.13617,-14.394909 h -0.34274 c -0.39688,9.21619 -5.9588,16.67421 -11.31028,23.648738 h -0.34273 c -2.458461,-4.415908 -3.997154,-8.089778 -3.006302,-13.361338 0.246077,-1.30895 2.104642,-1.9224 2.102582,-3.09873 -0.001,-1.17616 -1.75922,-1.5945 -2.071796,-2.751811 -0.586778,-2.17335 -0.324914,-5.62917 -0.07173,-7.862859 0.172408,-1.52098 2.146176,-2.18574 2.143436,-3.454041 -0.002,-1.41284 -2.512298,-2.79888 -2.768658,-4.77297 -0.973716,-7.508999 -1.457031,-15.172949 -2.839631,-22.62067 h -0.342725 l -2.958771,23.64891 -2.551773,3.4615 2.063095,3.73727 -0.08896,7.8616 -2.071811,2.73247 2.180937,4.14208 c -6.036615,-2.50535 -12.015632,-7.22379 -16.794066,-11.62353 -2.192463,-2.01903 -4.276365,-3.99367 -5.295662,-6.88414 -2.403261,-6.81312 -1.336273,-15.79761 -1.901799,-22.96336 h -0.342725 c 0.09695,4.26763 -0.485978,8.43583 -0.672079,12.68125 -0.177557,4.05333 0.356327,8.28616 -1.694268,11.99573 -5.377854,9.72899 -18.318802,13.821 -26.08074,21.24974 -0.554891,-2.33083 -1.001983,-6.62493 -0.135834,-8.90566 0.490808,-1.29174 2.659142,-1.98087 2.620062,-3.41075 -0.04457,-1.64648 -2.67816,-2.01316 -2.811505,-4.13498 -0.323533,-5.14175 -0.872419,-11.73098 0.06286,-16.79266 0.312573,-1.69071 2.788084,-2.24434 2.788084,-3.77011 0,-1.45668 -2.407221,-1.82123 -2.748578,-3.43416 -0.960347,-4.53681 -0.1179,-10.09457 -0.1179,-14.73208 0,-1.36419 -0.292634,-3.20424 0.597096,-4.35996 0.657021,-0.85317 2.487921,-1.12555 2.327532,-2.46736 -0.20222,-1.69213 -2.938778,-1.96983 -3.235231,-4.14031 -0.871922,-6.38609 -1.612733,-12.79401 -2.378405,-19.1930895 -0.330399,-2.761558 -0.286971,-6.378962 -1.423827,-8.911144 z m 33.385289,9.4486335 c -9.835295,0 -19.147095,2.289441 -27.434275,6.35856 0.439638,3.63642 0.889413,7.26571 1.381003,10.87727 0.0318,0.0177 0.100677,0.055 0.398957,0.27647 0.07511,0.055 0.161577,0.11716 0.252366,0.1827 7.488461,-4.24545 16.154142,-6.66929 25.401949,-6.66929 28.484837,0 51.457906,22.973821 51.457906,51.458751 0,28.484688 -22.973069,51.455718 -51.457906,51.455718 -28.484855,0 -51.45858,-22.97102 -51.45858,-51.455718 0,-11.96216 4.052128,-22.95148 10.861783,-31.67638 l -0.0053,-3.91145 c -1.754584,-1.70297 -2.746072,-5.3225 0.06303,-8.71176 l 0.603133,-1.75837 0.285176,-2.19107 C 14.418439,35.948191 5.51799,53.320742 5.51799,72.725841 c 0,34.442709 28.039448,62.481409 62.482349,62.481409 34.442901,0 62.481671,-28.0387 62.481671,-62.481409 0,-34.44311 -28.03877,-62.48446 -62.481671,-62.48446 z" />
</svg>
